# Blender 5.1.0
# www.blender.org
mtllib item.mtl
o cube
v 0.250000 0.375000 0.750000
v 0.750000 0.375000 0.750000
v 0.750000 0.875000 0.750000
v 0.250000 0.875000 0.750000
v 0.250000 0.375000 0.250000
v 0.250000 0.875000 0.250000
v 0.750000 0.375000 0.250000
v 0.750000 0.875000 0.250000
vn -0.0000 -0.0000 1.0000
vn -1.0000 -0.0000 -0.0000
vn -0.0000 -0.0000 -1.0000
vn 1.0000 -0.0000 -0.0000
vn -0.0000 1.0000 -0.0000
vn -0.0000 -1.0000 -0.0000
vt 0.500000 0.500000
vt 1.000000 0.500000
vt 1.000000 1.000000
vt 0.500000 1.000000
vt 0.000000 0.500000
vt 0.000000 1.000000
vt 0.000000 0.000000
vt 0.500000 0.000000
vt 1.000000 0.000000
s 1
usemtl m_1
f 1/1/1 2/2/1 3/3/1 4/4/1
f 5/5/2 1/1/2 4/4/2 6/6/2
f 7/5/3 5/1/3 6/4/3 8/6/3
f 2/5/4 7/1/4 8/4/4 3/6/4
f 8/7/5 6/8/5 4/1/5 3/5/5
f 2/8/6 1/9/6 5/2/6 7/1/6
o cube4
v 0.125000 0.000000 0.875000
v 0.125000 0.250000 0.875000
v 0.125000 0.000000 0.125000
v 0.125000 0.250000 0.125000
v 0.875000 0.000000 0.875000
v 0.875000 0.250000 0.875000
v 0.875000 0.000000 0.125000
v 0.875000 0.250000 0.125000
v 0.062500 0.312500 0.937500
v 0.062500 0.875000 0.937500
v 0.937500 0.312500 0.937500
v 0.937500 0.875000 0.937500
v 0.062500 0.250000 0.875000
v 0.937500 0.250000 0.875000
v 0.062500 0.937500 1.000000
v 0.937500 0.937500 1.000000
v 0.937500 0.312500 0.937500
v 0.937500 0.875000 0.937500
v 0.937500 0.312500 0.062500
v 0.937500 0.875000 0.062500
v 0.875000 0.250000 0.937500
v 0.875000 0.250000 0.062500
v 1.000000 0.937500 0.937500
v 1.000000 0.937500 0.062500
v 0.937500 0.312500 0.062500
v 0.937500 0.875000 0.062500
v 0.062500 0.312500 0.062500
v 0.062500 0.875000 0.062500
v 0.937500 0.250000 0.125000
v 0.062500 0.250000 0.125000
v 0.937500 0.937500 -0.000000
v 0.062500 0.937500 -0.000000
v 0.062500 0.312500 0.062500
v 0.062500 0.875000 0.062500
v 0.062500 0.312500 0.937500
v 0.062500 0.875000 0.937500
v 0.125000 0.250000 0.062500
v 0.125000 0.250000 0.937500
v 0.000000 0.937500 0.062500
v 0.000000 0.937500 0.937500
v 0.875000 0.000000 0.875000
v 1.000000 0.000000 1.000000
v 0.875000 0.312500 0.875000
v 1.000000 0.312500 1.000000
v 0.875000 0.000000 0.125000
v 1.000000 0.000000 0.000000
v 0.875000 0.312500 0.125000
v 1.000000 0.312500 -0.000000
v 0.125000 0.000000 0.125000
v 0.000000 0.000000 0.000000
v 0.125000 0.312500 0.125000
v 0.000000 0.312500 -0.000000
v 0.125000 0.000000 0.875000
v 0.000000 0.000000 1.000000
v 0.125000 0.312500 0.875000
v 0.000000 0.312500 1.000000
v 0.062500 0.312500 0.937500
v 0.062500 0.875000 0.937500
v 0.937500 0.312500 0.937500
v 0.937500 0.875000 0.937500
v 0.062500 0.250000 0.875000
v 0.937500 0.250000 0.875000
v 0.062500 0.937500 1.000000
v 0.937500 0.937500 1.000000
v 0.937500 0.312500 0.937500
v 0.937500 0.875000 0.937500
v 0.937500 0.312500 0.062500
v 0.937500 0.875000 0.062500
v 0.875000 0.250000 0.937500
v 0.875000 0.250000 0.062500
v 1.000000 0.937500 0.937500
v 1.000000 0.937500 0.062500
v 0.937500 0.312500 0.062500
v 0.937500 0.875000 0.062500
v 0.062500 0.312500 0.062500
v 0.062500 0.875000 0.062500
v 0.937500 0.250000 0.125000
v 0.062500 0.250000 0.125000
v 0.937500 0.937500 -0.000000
v 0.062500 0.937500 -0.000000
v 0.062500 0.312500 0.062500
v 0.062500 0.875000 0.062500
v 0.062500 0.312500 0.937500
v 0.062500 0.875000 0.937500
v 0.125000 0.250000 0.062500
v 0.125000 0.250000 0.937500
v 0.000000 0.937500 0.062500
v 0.000000 0.937500 0.937500
v 0.875000 0.000000 0.875000
v 1.000000 0.000000 1.000000
v 0.875000 0.312500 0.875000
v 1.000000 0.312500 1.000000
v 0.875000 0.000000 0.125000
v 1.000000 0.000000 0.000000
v 0.875000 0.312500 0.125000
v 1.000000 0.312500 -0.000000
v 0.125000 0.000000 0.125000
v 0.000000 0.000000 0.000000
v 0.125000 0.312500 0.125000
v 0.000000 0.312500 -0.000000
v 0.125000 0.000000 0.875000
v 0.000000 0.000000 1.000000
v 0.125000 0.312500 0.875000
v 0.000000 0.312500 1.000000
vn -1.0000 -0.0000 -0.0000
vn -0.0000 -0.0000 -1.0000
vn 1.0000 -0.0000 -0.0000
vn -0.0000 -0.0000 1.0000
vn -0.0000 -1.0000 -0.0000
vn -0.0000 1.0000 -0.0000
vn -0.0000 -0.7071 0.7071
vn 0.7071 -0.7071 -0.0000
vn -0.0000 -0.7071 -0.7071
vn -0.7071 -0.7071 -0.0000
vn -0.7071 -0.0000 0.7071
vn 0.7071 -0.0000 0.7071
vn 0.7071 -0.0000 -0.7071
vn -0.7071 -0.0000 -0.7071
vn -0.0000 0.7071 -0.7071
vn -0.7071 0.7071 -0.0000
vn -0.0000 0.7071 0.7071
vn 0.7071 0.7071 -0.0000
vt 0.937500 0.375000
vt 0.937500 0.500000
vt 0.562500 0.500000
vt 0.562500 0.375000
vt 0.562500 0.000000
vt 0.937500 0.000000
vt 0.562500 0.562500
vt 0.937500 0.562500
vt 0.937500 0.937500
vt 0.562500 0.937500
vt 0.468750 0.531250
vt 0.468750 0.812500
vt 0.031250 0.812500
vt 0.031250 0.531250
vt 0.031250 0.500000
vt 0.468750 0.500000
vt 0.468750 0.843750
vt 0.031250 0.843750
vt 0.906250 0.343750
vt 1.000000 0.343750
vt 1.000000 0.500000
vt 0.906250 0.500000
s 1
usemtl m_0
f 9/10/7 10/11/7 12/12/7 11/13/7
f 11/10/8 12/11/8 16/12/8 15/13/8
f 15/10/9 16/11/9 14/12/9 13/13/9
f 13/10/10 14/11/10 10/12/10 9/13/10
f 11/14/11 15/15/11 13/10/11 9/13/11
f 16/16/12 12/17/12 10/18/12 14/19/12
f 19/20/10 20/21/10 18/22/10 17/23/10
f 19/24/13 17/25/13 21/20/13 22/23/13
f 18/22/13 20/21/13 24/26/13 23/27/13
f 27/20/9 28/21/9 26/22/9 25/23/9
f 27/24/14 25/25/14 29/20/14 30/23/14
f 26/22/14 28/21/14 32/26/14 31/27/14
f 35/20/8 36/21/8 34/22/8 33/23/8
f 35/24/15 33/25/15 37/20/15 38/23/15
f 34/22/15 36/21/15 40/26/15 39/27/15
f 43/20/7 44/21/7 42/22/7 41/23/7
f 43/24/16 41/25/16 45/20/16 46/23/16
f 42/22/16 44/21/16 48/26/16 47/27/16
f 49/28/17 50/29/17 52/30/17 51/31/17
f 53/28/18 54/29/18 56/30/18 55/31/18
f 57/28/19 58/29/19 60/30/19 59/31/19
f 61/28/20 62/29/20 64/30/20 63/31/20
f 67/20/8 65/23/8 66/22/8 68/21/8
f 67/24/21 70/23/21 69/20/21 65/25/21
f 66/22/21 71/27/21 72/26/21 68/21/21
f 75/20/7 73/23/7 74/22/7 76/21/7
f 75/24/22 78/23/22 77/20/22 73/25/22
f 74/22/22 79/27/22 80/26/22 76/21/22
f 83/20/10 81/23/10 82/22/10 84/21/10
f 83/24/23 86/23/23 85/20/23 81/25/23
f 82/22/23 87/27/23 88/26/23 84/21/23
f 91/20/9 89/23/9 90/22/9 92/21/9
f 91/24/24 94/23/24 93/20/24 89/25/24
f 90/22/24 95/27/24 96/26/24 92/21/24
f 97/28/19 99/31/19 100/30/19 98/29/19
f 101/28/20 103/31/20 104/30/20 102/29/20
f 105/28/17 107/31/17 108/30/17 106/29/17
f 109/28/18 111/31/18 112/30/18 110/29/18
